<svg xmlns="http://www.w3.org/2000/svg" fill="#d67013" viewBox="0 0 496.55 206.33"><path d="M85.65 0c-4.2 0-7.63 3.42-7.63 7.63s3.42 7.63 7.63 7.63c4.23 0 7.63-3.4 7.63-7.63 0-4.2-3.4-7.63-7.63-7.63" opacity=".6"/><path d="M64.72 8.04c-3.2 0-5.76 2.58-5.76 5.76 0 3.2 2.57 5.77 5.77 5.76 3.2 0 5.76-2.58 5.76-5.76 0-3.18-2.58-5.77-5.76-5.77" opacity=".4"/><path d="M53.72 24.24c-2.13 0-3.85 1.73-3.85 3.86 0 2.12 1.72 3.85 3.85 3.85 2.14 0 3.87-1.73 3.87-3.86s-1.74-3.86-3.88-3.86" opacity=".2"/><path d="M108.57 6.44c-5.35 0-9.7 4.34-9.7 9.7 0 5.34 4.35 9.68 9.7 9.7 5.37-.02 9.7-4.36 9.7-9.7 0-5.35-4.34-9.7-9.68-9.7" opacity=".8"/><path d="M119.9 55.2c7.13 0 12.9-5.77 12.9-12.88 0-7.1-5.77-12.86-12.9-12.86-7.1 0-12.86 5.75-12.86 12.86 0 7.1 5.76 12.87 12.87 12.87M10.23 185.72h3.24l7.9 19.33h-4.2l-1.55-3.8H8.2l-1.52 3.8H2.5l7.72-19.33m1.63 6.33l-2.27 5.7h4.6l-2.33-5.7zm15.54-6.33H34c1.78 0 3.2.52 4.3 1.56 1.1 1.02 1.64 2.4 1.64 4.08 0 1.1-.27 2.16-.8 3.16-.54 1-1.35 1.74-2.42 2.23-1.08.5-2 .74-2.77.76l-2.42.06v7.46H27.4v-19.33m4.07 3.47v4.95h1.63c.7 0 1.3-.25 1.8-.75s.74-1.1.74-1.78c0-.8-.28-1.4-.84-1.83-.56-.44-1.35-.66-2.4-.66l-.92.06zm14.95-3.47h6.6c1.8 0 3.22.52 4.3 1.56 1.1 1.02 1.65 2.4 1.65 4.08 0 1.1-.27 2.16-.8 3.16s-1.34 1.74-2.42 2.23c-1.08.5-2 .74-2.77.76l-2.4.06v7.46h-4.15v-19.33m4.08 3.47v4.95h1.63c.7 0 1.3-.25 1.8-.75s.74-1.1.74-1.78c0-.8-.28-1.4-.84-1.83-.56-.44-1.35-.66-2.38-.66l-.93.06zm14.96-3.47h4.14v15.16h5.7v4.16h-9.85v-19.33m15.6 0h4.17v19.33h-4.18zm11.1 0H103v3.83h-6.7v3.9h6.7v3.77h-6.7v4h6.7v3.83H92.12v-19.33m17.36 0h6.6c2.8 0 5.07.9 6.8 2.67 1.7 1.77 2.57 4.1 2.57 7.02 0 2.9-.9 5.25-2.66 7-1.78 1.76-4.13 2.64-7.08 2.64h-6.24v-19.33m4.2 3.66v11.93h1.66c1.7 0 3.1-.47 4.2-1.4 1.1-.93 1.66-2.5 1.66-4.67 0-1.26-.26-2.38-.8-3.36-.52-.97-1.28-1.63-2.3-1.98-1-.35-1.95-.52-2.86-.52h-1.53z"/><path fill="#4d4d4d" d="M131.52 185.73h4.17v19.33h-4.18zm23.85 0h4.08v19.33h-4.04l-8.86-12.5v12.5h-4.17v-19.33h4.13l8.88 12.42v-12.42m11 0h10.9v3.74h-6.74v3.95h6.74v3.77h-6.7v7.87h-4.17v-19.33m16.82 9.65c0-2.86.95-5.22 2.84-7.08 1.9-1.86 4.13-2.8 6.73-2.8 2.86 0 5.23.95 7.1 2.82 1.9 1.88 2.82 4.24 2.82 7.1 0 2.84-.92 5.2-2.78 7.07-1.86 1.9-4.2 2.82-7 2.82s-5.15-.93-6.97-2.8c-1.82-1.86-2.73-4.23-2.73-7.1m9.75-6.02c-1.63-.03-2.94.53-3.93 1.68-1 1.15-1.5 2.64-1.5 4.45 0 1.72.52 3.15 1.53 4.27 1 1.13 2.3 1.7 3.83 1.7 1.62 0 2.93-.56 3.92-1.68 1-1.1 1.5-2.58 1.5-4.4 0-1.8-.5-3.25-1.47-4.34-.97-1.1-2.27-1.65-3.9-1.68zm16.18-3.64h6.36c1.94 0 3.47.5 4.6 1.53 1.12 1 1.68 2.4 1.68 4.13 0 1-.26 2.03-.77 3.1-.52 1.07-1.47 1.9-2.85 2.52l5.4 8.05h-4.77l-5-7.47h-.48v7.47h-4.17v-19.33m4.2 3.46v5.03h.9c2.17 0 3.26-.88 3.26-2.66 0-.73-.28-1.3-.85-1.73-.57-.43-1.36-.64-2.36-.64h-.96zm17.8-3.45h4.96l3.62 11.58 3.64-11.58h4.77l2.47 19.33h-3.95l-1.72-13.58-4.27 13.6h-1.9l-4.34-13.72-1.6 13.72h-4.04l2.35-19.33m32.24 0h3.24l7.9 19.32h-4.2l-1.55-3.8h-7.44l-1.52 3.8h-4.17l7.72-19.33m1.62 6.32l-2.28 5.7h4.6l-2.33-5.7zm12.32-6.34h13.02v4.1h-4.44v15.23h-4.17v-15.2h-4.42v-4.12m18.57 0h4.17v19.33h-4.17zm10.43 9.65c0-2.85.95-5.2 2.84-7.07 1.9-1.86 4.14-2.8 6.73-2.8 2.87 0 5.24.94 7.12 2.8 1.87 1.88 2.8 4.25 2.8 7.1 0 2.84-.92 5.2-2.77 7.08-1.86 1.87-4.2 2.8-7 2.8s-5.15-.93-6.97-2.8c-1.82-1.86-2.74-4.23-2.74-7.1m9.75-6c-1.63-.04-2.94.52-3.93 1.67-1 1.15-1.5 2.64-1.5 4.45 0 1.72.52 3.15 1.53 4.27 1 1.13 2.3 1.7 3.83 1.7 1.62 0 2.92-.56 3.92-1.67 1-1.1 1.5-2.6 1.5-4.4 0-1.8-.5-3.25-1.48-4.34-.98-1.08-2.28-1.64-3.9-1.67zm29-3.66h4.08v19.33h-4.04l-8.86-12.5v12.5h-4.17V185.8h4.14l8.88 12.42v-12.43"/><path fill="#31668e" d="M2.5 111.28c0-25.7 16.47-41.8 35.96-41.8 11.7 0 21.6 6.2 25.86 17.7l2.3-16.12h17.54l-9.75 55.8c-.52 3.55.37 5.15 3.37 5.15h6.04l-2.3 13.46H73c-13.82 0-16.12-4.77-16.12-11.7v-1.58c-6.02 9.57-13.46 14.88-24.44 14.88-17 0-29.94-14-29.94-35.78m57.92-4.78c0-12.76-6.73-21.62-18.24-21.62-13.12 0-21.44 10.64-21.44 26.04 0 12.58 6.73 20.9 17.9 20.9 12.56 0 21.77-10.62 21.77-25.32zm37.9 20.02l9.57-55.46h17.7l-9.92 55.8c-.54 3.55.35 5.15 3.36 5.15h6.2l-2.3 13.46h-8.7c-13.8 0-18.58-4.6-15.94-18.94m37.2 4.6l12.58-8.5c4.24 6.37 9.74 10.45 18.95 10.45 8.68 0 12.04-3.2 12.04-7.97 0-4.78-3.9-6.2-15.06-11.52-10.26-5.14-17.7-10.98-17.7-22.32 0-14.17 11.34-21.8 25.86-21.8 11.33 0 19.66 4.62 24.8 11.17l-11.5 9.57c-3-3.9-6.56-7.1-13.47-7.1-5.5 0-9.4 2.5-9.4 6.93 0 4.42 3.72 6.54 12.22 10.44 11.7 5.5 21.07 10.63 21.07 24.1 0 13.1-9.75 22.5-29.24 22.5-15.23 0-25.68-6.9-31.18-15.95M366.9 187.5l-2.6 2.83c-1.35-.8-2.34-1.2-2.93-1.2-.46 0-.86.17-1.2.52-.33.34-.5.76-.5 1.24 0 .94.87 1.76 2.6 2.46 1.26.54 2.22 1.03 2.87 1.47.65.43 1.2 1.04 1.63 1.82.43.77.65 1.6.65 2.5 0 1.67-.67 3.1-2 4.34-1.34 1.2-2.92 1.83-4.74 1.83-2 0-3.98-.94-5.93-2.82l2.74-3.2c1.22 1.27 2.36 1.9 3.43 1.9.5 0 .98-.22 1.44-.66.46-.45.7-.9.7-1.4 0-1-1.07-1.9-3.2-2.67-1.22-.44-2.08-.86-2.6-1.25-.5-.38-.93-.95-1.27-1.7-.35-.73-.52-1.5-.52-2.26 0-1.72.56-3.1 1.68-4.2 1.12-1.06 2.58-1.6 4.4-1.6 2.13 0 3.93.68 5.38 2.03m20.97-.73v4.72c-2.08-1.27-3.9-1.9-5.48-1.9-1.57 0-2.82.54-3.77 1.6-.94 1.1-1.4 2.54-1.4 4.37 0 1.73.5 3.1 1.48 4.14 1 1.05 2.32 1.57 3.98 1.57 1.47 0 3.2-.6 5.22-1.77v4.68c-2.26.76-4.15 1.14-5.66 1.14-2.6 0-4.8-.96-6.62-2.87-1.8-1.9-2.72-4.24-2.72-7 0-2.8.93-5.16 2.78-7.1 1.85-1.94 4.1-2.9 6.75-2.9 1.7 0 3.54.42 5.5 1.28m5.93-1.03h4.17v19.33h-4.17zm11.1 0h10.86v3.83h-6.7v3.9h6.7v3.76h-6.7v4h6.7V205h-10.88V185.7m30.23 0h4.07v19.33h-4.04l-8.86-12.5v12.5h-4.17V185.7h4.12l8.87 12.42V185.7m25.42 1.04v4.7c-2.1-1.25-3.92-1.88-5.5-1.88-1.56 0-2.82.54-3.76 1.62s-1.4 2.53-1.4 4.36c0 1.73.48 3.1 1.48 4.14 1 1.04 2.32 1.56 3.98 1.56 1.45 0 3.2-.6 5.2-1.77v4.68c-2.25.76-4.14 1.14-5.66 1.14-2.6 0-4.8-.96-6.62-2.87-1.8-1.9-2.72-4.24-2.72-7 0-2.8.92-5.16 2.77-7.1 1.84-1.92 4.1-2.9 6.74-2.9 1.7 0 3.54.44 5.5 1.3m6.17-1.03h10.9v3.83h-6.72v3.9h6.7v3.78h-6.7v4h6.7v3.84H466.8V185.7m28.3 1.76l-2.6 2.84c-1.36-.8-2.35-1.2-2.94-1.2-.47 0-.87.17-1.2.52-.34.35-.5.76-.5 1.24 0 .95.86 1.77 2.6 2.47 1.25.54 2.2 1.03 2.86 1.47s1.2 1.04 1.63 1.82c.44.77.65 1.6.65 2.52 0 1.66-.67 3.1-2 4.33-1.35 1.22-2.93 1.84-4.76 1.84-2 0-3.98-.93-5.93-2.8l2.75-3.2c1.22 1.25 2.37 1.88 3.44 1.88.5 0 .97-.22 1.43-.67.46-.43.7-.9.7-1.4 0-1-1.08-1.88-3.2-2.65-1.22-.44-2.1-.86-2.6-1.25s-.94-.95-1.28-1.7c-.35-.73-.52-1.5-.52-2.26 0-1.72.56-3.1 1.68-4.18 1.13-1.07 2.6-1.6 4.4-1.6 2.14 0 3.93.67 5.38 2.02"/></svg>
