<svg width="1081" height="1411" viewBox="0 0 1083 1448" xmlns="http://www.w3.org/2000/svg"><title>sky_print</title><path d="M992.008 1103.486c-2.606 6.466-8.828 10.394-15.394 10.394-2.068 0-4.168-.392-6.2-1.21-140.8-56.754-261.126-120.316-357.626-188.934-86.142-61.242-155.832-128.316-207.126-199.368-80.216-111.108-117.576-230.476-117.576-375.666 0-47.608 15.258-92.776 44.122-130.628 5.558-7.288 15.972-8.69 23.258-3.136.012.012.026.026.036.04l.008.002c7.288 5.56 8.69 15.972 3.132 23.26-24.412 32.002-37.316 70.206-37.316 110.462 0 .36-.034.704-.054 1.058.244 200.248 69.614 493.532 661.546 732.13 8.506 3.428 12.616 13.098 9.19 21.596zm17.708-82.332c-116.066-46.706-217.384-98.118-301.154-152.818-7.674-5.01-17.952-2.858-22.964 4.822-5.008 7.672-2.85 17.954 4.822 22.964 85.58 55.88 188.838 108.306 306.906 155.82a16.53 16.53 0 0 0 6.19 1.202c6.572 0 12.796-3.93 15.4-10.4 3.418-8.502-.7-18.168-9.2-21.59zm-505.852-788.61c64.05 0 116.158 52.112 116.158 116.162 0 45.774 37.244 83.012 83.018 83.012 45.776 0 83.018-37.238 83.018-83.012 0-155.594-126.584-282.178-282.176-282.178-75.37 0-146.23 29.35-199.524 82.65-53.296 53.294-82.65 124.16-82.646 199.526 0 74.628 9.028 142.074 27.598 206.192 23.49 81.116 63.088 158.026 117.694 228.594a792.856 792.856 0 0 0 30.934 37.502c6.038 6.89 16.524 7.578 23.41 1.534 6.892-6.042 7.58-16.524 1.538-23.412a762.55 762.55 0 0 1-29.636-35.932c-52.036-67.246-89.738-140.428-112.066-217.514-17.686-61.072-26.286-125.498-26.292-196.96 0-137.294 111.694-248.988 248.988-248.988 137.292 0 248.988 111.698 248.988 248.992 0 27.476-22.352 49.828-49.83 49.828-27.476 0-49.834-22.352-49.834-49.828 0-82.35-66.994-149.346-149.344-149.346-81.858 0-148.55 66.204-149.346 147.882-.036.48-.062.972-.062 1.46 0 86.57 12.186 217.404 117.534 353.55 41.836 54.074 96.424 106.17 162.232 154.85a16.485 16.485 0 0 0 9.86 3.252c5.078 0 10.096-2.322 13.35-6.722 5.45-7.372 3.894-17.76-3.472-23.206-63.356-46.872-115.75-96.818-155.722-148.478-98.56-127.376-110.46-250.124-110.586-331.83.036-.464.054-.936.054-1.416.002-64.056 52.11-116.164 116.162-116.164zm446.742 907.878c-121.39-49.43-227.83-103.896-316.364-161.882-63.032-41.288-119.062-85.76-166.528-132.176-6.552-6.406-17.06-6.286-23.464.26-6.406 6.554-6.292 17.058.262 23.464 48.998 47.922 106.718 93.75 171.548 136.21 90.318 59.154 198.662 114.626 322.028 164.858a16.535 16.535 0 0 0 6.248 1.234c6.554 0 12.754-3.908 15.376-10.342 3.46-8.49-.622-18.164-9.106-21.626zM141.44 989.776a16.598 16.598 0 0 0-3.182-13.944 987.855 987.855 0 0 1-7.484-9.554c-34.778-44.944-65.706-92.474-91.922-141.29-4.334-8.07-14.396-11.102-22.47-6.764-8.076 4.33-11.102 14.396-6.766 22.47 25.892 48.208 56.222 95.198 90.202 139.766a860.262 860.262 0 0 0-39.154 21.8c-7.89 4.666-10.502 14.842-5.836 22.732a16.6 16.6 0 0 0 14.296 8.142c2.872 0 5.78-.742 8.434-2.314a830.137 830.137 0 0 1 55.036-29.804 16.58 16.58 0 0 0 8.846-11.24zm929.684-302.732c-28.576-12.616-55.822-25.544-81.28-38.568 29.74-28.422 54.974-60.974 75.19-97.042 4.48-7.99 1.636-18.104-6.36-22.586-7.996-4.474-18.106-1.634-22.59 6.366-22.256 39.71-51.132 74.794-85.816 104.274a16.61 16.61 0 0 0-5.75 14.414 16.59 16.59 0 0 0 8.676 12.862c32.004 17.112 67.174 34.148 104.528 50.642 2.18.96 4.45 1.416 6.69 1.416 6.374 0 12.45-3.692 15.19-9.896 3.702-8.384-.098-18.178-8.478-21.882zm-820.262 328.292a16.594 16.594 0 0 0-4.022-15.204c-22.726-24.274-44.118-49.332-63.572-74.478C115.942 838.65 65.478 743.508 33.28 642.88c-2.792-8.726-12.13-13.544-20.86-10.744-8.728 2.794-13.538 12.134-10.746 20.862C35.058 757.32 87.326 855.89 157.028 945.968c15.266 19.732 31.68 39.404 48.966 58.702a804.024 804.024 0 0 0-119.916 59.884c-7.828 4.764-10.312 14.968-5.548 22.8 3.126 5.134 8.59 7.966 14.19 7.966 2.938 0 5.918-.782 8.612-2.418 43.342-26.384 89.458-48.536 137.064-65.834a16.577 16.577 0 0 0 10.466-11.732zm817.672-257.072c-62.648-26.63-119.25-54.538-168.228-82.946-7.93-4.592-18.08-1.896-22.682 6.03-4.594 7.926-1.896 18.082 6.032 22.676 50.162 29.088 107.992 57.616 171.894 84.784a16.53 16.53 0 0 0 6.486 1.326c6.45 0 12.592-3.788 15.276-10.104 3.584-8.434-.348-18.178-8.778-21.766zM827.58 638.4c-8.42 3.63-12.294 13.394-8.66 21.808 2.704 6.274 8.818 10.022 15.238 10.022 2.194 0 4.426-.436 6.568-1.364 97.822-42.216 172.364-128.758 199.41-231.504 2.334-8.86-2.96-17.934-11.822-20.264-8.862-2.346-17.94 2.96-20.27 11.82-24.47 92.96-91.936 171.27-180.464 209.482zm233.384 188.656c-146.014-60.5-259.758-126.598-338.864-196.85 146.726-9.828 263.084-132.328 263.084-281.502 0-19.804-1.222-39.752-3.632-59.288-1.122-9.098-9.418-15.576-18.504-14.438-9.09 1.122-15.556 9.404-14.432 18.5a453.26 453.26 0 0 1 3.382 55.226c0 137.272-111.686 248.95-248.958 248.95-7.134 0-14.334-.3-21.386-.906-6.858-.592-13.454 3.178-16.418 9.452a16.598 16.598 0 0 0 3.144 18.682c82.278 84.144 210.09 162.482 379.878 232.834a16.59 16.59 0 0 0 6.344 1.266c6.514 0 12.692-3.856 15.338-10.242 3.506-8.47-.51-18.178-8.976-21.684zM58.044 610.292c30.504 105.31 81.466 204.58 151.476 295.054 34.592 44.706 74.674 88.186 119.422 129.56a729.332 729.332 0 0 0-35.308 9.54c-8.784 2.61-13.792 11.842-11.186 20.628 2.142 7.21 8.744 11.874 15.902 11.874 1.564 0 3.154-.222 4.728-.688a706.884 706.884 0 0 1 64.164-15.814 16.602 16.602 0 0 0 12.814-11.978 16.585 16.585 0 0 0-5.094-16.78c-52.966-46.396-99.792-95.728-139.196-146.646-67.44-87.16-116.51-182.706-145.844-283.982-12.786-44.136-21.732-88.298-27.352-134.996-1.094-9.094-9.358-15.576-18.458-14.49-9.096 1.098-15.588 9.362-14.492 18.456 5.84 48.498 15.136 94.378 28.424 140.262zm192.074 466.054c-3.42-8.508-13.09-12.626-21.588-9.206-38.734 15.578-76.422 34.626-112.022 56.606-7.794 4.812-10.212 15.04-5.4 22.832 3.138 5.086 8.574 7.88 14.134 7.88 2.974 0 5.986-.796 8.704-2.476 33.996-20.988 69.982-39.176 106.968-54.052 8.504-3.418 12.622-13.082 9.204-21.584zm798.504-182.624c-211.91-86.358-361.77-184.94-445.396-293.016-14.098-18.212-26.538-37.26-36.974-56.608-4.35-8.066-14.418-11.08-22.48-6.722-8.064 4.346-11.076 14.412-6.724 22.478 11.294 20.942 24.728 41.516 39.932 61.16 87.25 112.762 241.722 214.852 459.118 303.446a16.575 16.575 0 0 0 6.258 1.226c6.546 0 12.746-3.9 15.37-10.334 3.464-8.494-.616-18.174-9.104-21.63zm-247.16-391.304c-29.384 18.882-63.412 28.862-98.42 28.862-100.674 0-182.58-81.902-182.58-182.576 0-9.164-7.424-16.588-16.584-16.592h-.008c-9.16 0-16.584 7.42-16.594 16.58l-.008 9.194a16.41 16.41 0 0 0 .382 3.57c6.614 113.062 100.698 203.01 215.392 203.01 41.384 0 81.624-11.798 116.36-34.126 7.71-4.956 9.944-15.222 4.99-22.93-4.96-7.714-15.218-9.942-22.93-4.992zm84.162-153.712c0 41.492-13.63 80.626-39.408 113.168-5.692 7.182-4.484 17.618 2.704 23.31a16.53 16.53 0 0 0 10.292 3.584 16.57 16.57 0 0 0 13.018-6.29c30.472-38.464 46.58-84.724 46.58-133.774 0-90.484-28.73-176.524-83.084-248.838-5.506-7.326-15.908-8.802-23.234-3.292-7.324 5.504-8.804 15.908-3.292 23.234 49.994 66.518 76.424 145.668 76.424 228.898zM137.732 603.804a16.72 16.72 0 0 0 4.626-.658c8.802-2.55 13.872-11.756 11.32-20.554-21.212-73.248-31.524-149.752-31.524-233.892 0-13.932.75-27.964 2.232-41.704.982-9.11-5.604-17.296-14.716-18.276-9.116-.988-17.294 5.604-18.278 14.718a423.92 423.92 0 0 0-2.424 45.26c0 87.31 10.74 166.834 32.836 243.124 2.106 7.262 8.734 11.982 15.928 11.982zm405.076 510.502c7.454.426 14.3-4.234 16.662-11.334a16.585 16.585 0 0 0-6.552-19.05c-108.49-72.174-197.526-152.754-264.656-239.504-46.606-60.234-83.932-125.154-110.942-192.954-3.392-8.512-13.044-12.66-21.552-9.276-8.516 3.392-12.668 13.042-9.28 21.554 28.158 70.68 67.028 138.302 115.532 200.986 59.76 77.228 136.126 149.594 227.464 215.592-119.804 2.942-236.042 37.152-337.208 99.384-7.81 4.8-10.242 15.022-5.438 22.832 3.13 5.09 8.57 7.896 14.146 7.896a16.5 16.5 0 0 0 8.678-2.464c100.68-61.936 217.11-94.674 336.708-94.674 12.108.002 24.372.346 36.438 1.012zm318.85 145.998c-104.058-74.462-226.916-113.822-355.29-113.822-110.174 0-218.18 29.646-312.332 85.728-7.87 4.69-10.45 14.876-5.762 22.746 4.694 7.878 14.882 10.456 22.746 5.762 89.022-53.02 191.15-81.046 295.348-81.046 121.406 0 237.582 37.216 335.98 107.624a16.53 16.53 0 0 0 9.642 3.1c5.168 0 10.268-2.412 13.506-6.942 5.334-7.452 3.614-17.818-3.838-23.15zm169.926-301.888C804.36 866.7 642.58 760.016 550.734 641.324c-40.6-52.47-94.794-138.914-96.652-283.012v-9.608c0-27.45 22.334-49.782 49.784-49.782 27.446 0 49.782 22.334 49.782 49.786 0 82.374 67.02 149.388 149.394 149.388 82.38 0 149.396-67.014 149.396-149.388 0-106.674-48.042-206.108-131.81-272.792-7.164-5.71-17.606-4.524-23.314 2.644-5.71 7.17-4.524 17.61 2.646 23.318 75.812 60.356 119.292 150.32 119.292 246.832 0 64.076-52.128 116.204-116.21 116.204-64.078 0-116.208-52.128-116.208-116.204 0-45.748-37.218-82.972-82.968-82.972s-82.97 37.222-82.97 82.968l.002 9.822c.954 73.88 12.726 185.682 103.592 303.11 95.496 123.402 261.93 233.61 494.672 327.552 2.03.824 4.136 1.21 6.208 1.21 6.566 0 12.784-3.922 15.392-10.388 3.424-8.496-.68-18.166-9.178-21.596zm-734-853.238c3.622 0 7.266-1.178 10.322-3.612 56.052-44.636 123.82-68.23 195.978-68.23 49.814 0 97.496 11.328 141.718 33.676 8.17 4.13 18.162.854 22.296-7.326 4.13-8.18.85-18.158-7.328-22.294C611.66 12.682 558.946.15 503.884.15c-79.746 0-154.664 26.094-216.648 75.454-7.168 5.712-8.354 16.15-2.644 23.318 3.278 4.118 8.112 6.256 12.992 6.256zM912.392 1196.49c-119.884-49.606-225.708-104.252-314.516-162.418C491.658 964.5 405.156 887.028 340.756 803.8c-57.174-73.884-98.666-154.522-123.328-239.674-19.452-67.16-28.906-137.626-28.906-215.424-.006-75.524 25.624-145.772 74.11-203.144 5.912-6.998 5.034-17.47-1.968-23.382-7-5.914-17.468-5.038-23.384 1.966-52.846 62.534-81.948 142.286-81.942 224.56 0 80.972 9.886 154.46 30.216 224.656 25.828 89.182 69.212 173.548 128.956 250.75 66.654 86.144 155.876 166.128 265.182 237.722 90.544 59.296 198.214 114.926 320.012 165.326a16.658 16.658 0 0 0 6.338 1.266c6.512 0 12.694-3.864 15.336-10.258 3.504-8.464-.516-18.17-8.986-21.674zM808.49 1304.102c-59.4-39.738-125.07-66.932-195.178-80.82-8.98-1.756-17.72 4.072-19.502 13.06-1.782 8.986 4.066 17.718 13.056 19.502 65.794 13.028 127.422 38.542 183.174 75.838a16.49 16.49 0 0 0 9.21 2.804c5.348 0 10.606-2.582 13.806-7.368 5.1-7.618 3.056-17.92-4.566-23.016zm-265.894-56.808c9.106.612 17.064-6.264 17.702-15.4.63-9.144-6.262-17.068-15.404-17.708a562.974 562.974 0 0 0-38.524-1.332c-92.532 0-183.7 23.438-263.654 67.778-8.016 4.442-10.908 14.542-6.466 22.552 3.028 5.468 8.692 8.552 14.526 8.552 2.72 0 5.482-.672 8.032-2.092 75.042-41.604 160.652-63.608 247.564-63.608 12.054.002 24.24.428 36.224 1.258zm205.976 97.55c-72.886-42.926-156.638-65.612-242.202-65.612-71.834 0-140.742 15.406-204.808 45.786-8.282 3.93-11.81 13.822-7.882 22.108 3.926 8.284 13.816 11.802 22.1 7.88 59.588-28.256 123.714-42.586 190.59-42.586 79.646 0 157.576 21.102 225.362 61.02a16.474 16.474 0 0 0 8.404 2.298c5.68 0 11.222-2.92 14.314-8.176 4.648-7.896 2.022-18.068-5.878-22.718zm-80.988 33.376c-50.914-21.642-105.158-32.612-161.214-32.612-43.19 0-85.68 6.598-126.292 19.624-8.726 2.794-13.532 12.136-10.732 20.868 2.796 8.732 12.148 13.534 20.866 10.728 37.33-11.972 76.41-18.042 116.158-18.042 51.572 0 101.446 10.086 148.236 29.97a16.44 16.44 0 0 0 6.486 1.332c6.452 0 12.594-3.798 15.274-10.108 3.586-8.434-.346-18.174-8.782-21.76zM401.902 197.374c30.194-20.418 65.452-31.208 101.962-31.208.502 0 1.002-.024 1.49-.066 47.168.374 91.772 18.702 125.722 51.704 34.236 33.28 53.884 77.766 55.332 125.272.272 8.992 7.646 16.088 16.576 16.088.17 0 .342 0 .514-.008 9.16-.276 16.36-7.93 16.084-17.086-1.71-56.164-24.922-108.748-65.378-148.064-40.536-39.402-93.922-61.1-150.32-61.1-.546 0-1.08.028-1.618.08-42.588.308-83.688 13.052-118.956 36.9-7.59 5.13-9.584 15.446-4.448 23.038 5.134 7.588 15.444 9.586 23.04 4.45z" fill="#61BCBA" fill-rule="evenodd"/></svg>